<svg width="24" height="26" viewBox="0 0 24 26" fill="none" xmlns="http://www.w3.org/2000/svg">
<path d="M14.3209 15.3933C13.8407 14.8867 12.9973 14.5619 12.0016 14.5619C11.0059 14.5619 10.1625 14.8867 9.6823 15.3933C9.4318 15.6577 9.2993 15.9287 9.2575 16.3148C9.1767 17.0625 9.2221 17.7062 9.3097 18.7354C9.3931 19.7161 9.5516 21.024 9.7583 22.356C9.9055 23.3039 10.025 23.8155 10.1339 24.1819C10.3104 24.7756 10.97 25.2949 12.0016 25.2949C13.0331 25.2949 13.6928 24.7755 13.8693 24.1819C13.9781 23.8155 14.0977 23.3039 14.2448 22.356C14.4516 21.024 14.61 19.7161 14.6935 18.7354C14.7811 17.7061 14.8265 17.0623 14.7456 16.3148C14.7039 15.9289 14.5714 15.6577 14.3209 15.3933ZM9.3852 10.8822C9.3852 12.3285 10.5577 13.501 12.0041 13.501C13.4505 13.501 14.623 12.3285 14.623 10.8822C14.623 9.4358 13.4505 8.2633 12.0041 8.2633C10.5577 8.2633 9.3852 9.4358 9.3852 10.8822ZM11.9716 0.547044C5.84669 0.564474 0.827902 5.53341 0.752102 11.658C0.690552 16.6193 3.85762 20.8632 8.28 22.4188C8.3873 22.4565 8.4963 22.3674 8.4794 22.2549C8.4214 21.8696 8.3667 21.4825 8.3165 21.1019C8.2987 20.9674 8.213 20.8514 8.0887 20.7971C4.5933 19.27 2.15251 15.7644 2.19168 11.7037C2.24305 6.37477 6.5946 2.03036 11.9236 1.98725C17.3714 1.94325 21.8174 6.36219 21.8174 11.8C21.8174 15.82 19.3873 19.2826 15.9191 20.7975C15.7949 20.8518 15.7097 20.9681 15.692 21.1026C15.6418 21.483 15.5871 21.87 15.5292 22.2549C15.5122 22.3674 15.6212 22.4565 15.7285 22.4189C20.1086 20.8782 23.2573 16.7003 23.2573 11.8001C23.257 5.58415 18.1914 0.529244 11.9716 0.547044ZM11.7683 5.70954C15.2404 5.57512 18.1079 8.3607 18.1079 11.8034C18.1079 13.5543 17.3661 15.1351 16.1805 16.2483C16.0799 16.3427 16.0258 16.4767 16.0336 16.6144C16.0572 17.0332 16.0486 17.4402 16.0207 17.8998C16.0132 18.0222 16.1506 18.1004 16.2519 18.0314C18.2401 16.6727 19.5478 14.3881 19.5478 11.8034C19.5478 7.5478 16.0031 4.10439 11.7112 4.27073C7.7226 4.42537 4.52259 7.7139 4.47147 11.7053C4.43789 14.3303 5.7536 16.6559 7.7674 18.0316C7.8685 18.1007 8.0054 18.0224 7.9979 17.9C7.9699 17.4402 7.9614 17.0332 7.9849 16.6144C7.9927 16.4768 7.9388 16.3428 7.8384 16.2486C6.6158 15.1007 5.86501 13.4558 5.91282 11.6398C5.99701 8.444 8.5736 5.83328 11.7683 5.70954Z" fill="white"/>
</svg>
